<mxfile host="app.diagrams.net" agent="Mozilla/5.0 (Windows NT 10.0; Win64; x64; rv:134.0) Gecko/20100101 Firefox/134.0" version="26.0.7">
  <diagram name="Страница — 1" id="0VDd6HWyuDkhmlakwKvJ">
    <mxGraphModel dx="2790" dy="1290" grid="1" gridSize="10" guides="1" tooltips="1" connect="1" arrows="1" fold="1" page="1" pageScale="1" pageWidth="827" pageHeight="1169" math="0" shadow="0">
      <root>
        <mxCell id="0" />
        <mxCell id="1" parent="0" />
        <mxCell id="gPP1iTlo6FLZJjChbTKV-84" style="edgeStyle=orthogonalEdgeStyle;rounded=0;orthogonalLoop=1;jettySize=auto;html=1;entryX=0.5;entryY=0;entryDx=0;entryDy=0;" edge="1" parent="1" source="gPP1iTlo6FLZJjChbTKV-85" target="gPP1iTlo6FLZJjChbTKV-86">
          <mxGeometry relative="1" as="geometry" />
        </mxCell>
        <mxCell id="gPP1iTlo6FLZJjChbTKV-85" value="" style="shape=ellipse;html=1;dashed=0;whiteSpace=wrap;aspect=fixed;strokeWidth=5;perimeter=ellipsePerimeter;fillColor=#000000;" vertex="1" parent="1">
          <mxGeometry x="552" y="30" width="30" height="30" as="geometry" />
        </mxCell>
        <mxCell id="gPP1iTlo6FLZJjChbTKV-86" value="Не авторизван" style="rounded=1;whiteSpace=wrap;html=1;" vertex="1" parent="1">
          <mxGeometry x="507" y="110" width="120" height="60" as="geometry" />
        </mxCell>
        <mxCell id="gPP1iTlo6FLZJjChbTKV-87" value="" style="edgeStyle=orthogonalEdgeStyle;rounded=0;orthogonalLoop=1;jettySize=auto;html=1;" edge="1" parent="1" source="gPP1iTlo6FLZJjChbTKV-89" target="gPP1iTlo6FLZJjChbTKV-91">
          <mxGeometry relative="1" as="geometry" />
        </mxCell>
        <mxCell id="gPP1iTlo6FLZJjChbTKV-88" value="" style="edgeStyle=orthogonalEdgeStyle;rounded=0;orthogonalLoop=1;jettySize=auto;html=1;" edge="1" parent="1" source="gPP1iTlo6FLZJjChbTKV-89" target="gPP1iTlo6FLZJjChbTKV-97">
          <mxGeometry relative="1" as="geometry" />
        </mxCell>
        <mxCell id="gPP1iTlo6FLZJjChbTKV-89" value="Зарегистрирован?" style="html=1;whiteSpace=wrap;aspect=fixed;shape=isoRectangle;" vertex="1" parent="1">
          <mxGeometry x="492" y="400" width="150" height="90" as="geometry" />
        </mxCell>
        <mxCell id="gPP1iTlo6FLZJjChbTKV-90" value="" style="edgeStyle=orthogonalEdgeStyle;rounded=0;orthogonalLoop=1;jettySize=auto;html=1;" edge="1" parent="1" source="gPP1iTlo6FLZJjChbTKV-91" target="gPP1iTlo6FLZJjChbTKV-109">
          <mxGeometry relative="1" as="geometry" />
        </mxCell>
        <mxCell id="gPP1iTlo6FLZJjChbTKV-91" value="Зарегистрирован" style="rounded=1;whiteSpace=wrap;html=1;" vertex="1" parent="1">
          <mxGeometry x="335" y="540" width="120" height="60" as="geometry" />
        </mxCell>
        <mxCell id="gPP1iTlo6FLZJjChbTKV-92" value="Ожидание подтверждения" style="text;html=1;align=center;verticalAlign=middle;resizable=0;points=[];autosize=1;strokeColor=none;fillColor=none;" vertex="1" parent="1">
          <mxGeometry x="700" y="90" width="170" height="30" as="geometry" />
        </mxCell>
        <mxCell id="gPP1iTlo6FLZJjChbTKV-93" value="" style="edgeStyle=orthogonalEdgeStyle;rounded=0;orthogonalLoop=1;jettySize=auto;html=1;" edge="1" parent="1" source="gPP1iTlo6FLZJjChbTKV-95" target="gPP1iTlo6FLZJjChbTKV-86">
          <mxGeometry relative="1" as="geometry">
            <Array as="points">
              <mxPoint x="910" y="130" />
            </Array>
          </mxGeometry>
        </mxCell>
        <mxCell id="gPP1iTlo6FLZJjChbTKV-94" value="" style="edgeStyle=orthogonalEdgeStyle;rounded=0;orthogonalLoop=1;jettySize=auto;html=1;" edge="1" parent="1" source="gPP1iTlo6FLZJjChbTKV-95" target="gPP1iTlo6FLZJjChbTKV-107">
          <mxGeometry relative="1" as="geometry" />
        </mxCell>
        <mxCell id="gPP1iTlo6FLZJjChbTKV-95" value="Данные&amp;nbsp;&lt;div&gt;подтверждены?&lt;/div&gt;" style="html=1;whiteSpace=wrap;aspect=fixed;shape=isoRectangle;" vertex="1" parent="1">
          <mxGeometry x="835" y="185" width="150" height="90" as="geometry" />
        </mxCell>
        <mxCell id="gPP1iTlo6FLZJjChbTKV-96" value="" style="edgeStyle=orthogonalEdgeStyle;rounded=0;orthogonalLoop=1;jettySize=auto;html=1;" edge="1" parent="1" source="gPP1iTlo6FLZJjChbTKV-97" target="gPP1iTlo6FLZJjChbTKV-103">
          <mxGeometry relative="1" as="geometry" />
        </mxCell>
        <mxCell id="gPP1iTlo6FLZJjChbTKV-97" value="Не зарегистрирован" style="rounded=1;whiteSpace=wrap;html=1;" vertex="1" parent="1">
          <mxGeometry x="695" y="415" width="120" height="60" as="geometry" />
        </mxCell>
        <mxCell id="gPP1iTlo6FLZJjChbTKV-98" value="" style="shape=ellipse;html=1;dashed=0;whiteSpace=wrap;aspect=fixed;strokeWidth=5;perimeter=ellipsePerimeter;" vertex="1" parent="1">
          <mxGeometry x="370" y="1210" width="50" height="50" as="geometry" />
        </mxCell>
        <mxCell id="gPP1iTlo6FLZJjChbTKV-99" value="" style="edgeStyle=orthogonalEdgeStyle;rounded=0;orthogonalLoop=1;jettySize=auto;html=1;" edge="1" parent="1" source="gPP1iTlo6FLZJjChbTKV-100" target="gPP1iTlo6FLZJjChbTKV-98">
          <mxGeometry relative="1" as="geometry" />
        </mxCell>
        <mxCell id="gPP1iTlo6FLZJjChbTKV-100" value="Вход выполнен" style="rounded=1;whiteSpace=wrap;html=1;" vertex="1" parent="1">
          <mxGeometry x="335" y="1100" width="120" height="60" as="geometry" />
        </mxCell>
        <mxCell id="gPP1iTlo6FLZJjChbTKV-101" value="" style="edgeStyle=orthogonalEdgeStyle;rounded=0;orthogonalLoop=1;jettySize=auto;html=1;" edge="1" parent="1" source="gPP1iTlo6FLZJjChbTKV-86" target="gPP1iTlo6FLZJjChbTKV-89">
          <mxGeometry relative="1" as="geometry">
            <mxPoint x="567" y="310" as="sourcePoint" />
          </mxGeometry>
        </mxCell>
        <mxCell id="gPP1iTlo6FLZJjChbTKV-102" value="" style="edgeStyle=orthogonalEdgeStyle;rounded=0;orthogonalLoop=1;jettySize=auto;html=1;" edge="1" parent="1" source="gPP1iTlo6FLZJjChbTKV-103" target="gPP1iTlo6FLZJjChbTKV-105">
          <mxGeometry relative="1" as="geometry" />
        </mxCell>
        <mxCell id="gPP1iTlo6FLZJjChbTKV-103" value="Введены данные&lt;div&gt;пользователя&lt;/div&gt;" style="rounded=1;whiteSpace=wrap;html=1;" vertex="1" parent="1">
          <mxGeometry x="850" y="415" width="120" height="60" as="geometry" />
        </mxCell>
        <mxCell id="gPP1iTlo6FLZJjChbTKV-104" value="" style="edgeStyle=orthogonalEdgeStyle;rounded=0;orthogonalLoop=1;jettySize=auto;html=1;" edge="1" parent="1" source="gPP1iTlo6FLZJjChbTKV-105" target="gPP1iTlo6FLZJjChbTKV-95">
          <mxGeometry relative="1" as="geometry" />
        </mxCell>
        <mxCell id="gPP1iTlo6FLZJjChbTKV-105" value="Данные&amp;nbsp;&lt;div&gt;&lt;span style=&quot;background-color: initial;&quot;&gt;пользователя&lt;/span&gt;&lt;/div&gt;&lt;div&gt;отправлены&lt;/div&gt;" style="rounded=1;whiteSpace=wrap;html=1;" vertex="1" parent="1">
          <mxGeometry x="850" y="325" width="120" height="60" as="geometry" />
        </mxCell>
        <mxCell id="gPP1iTlo6FLZJjChbTKV-106" value="" style="edgeStyle=orthogonalEdgeStyle;rounded=0;orthogonalLoop=1;jettySize=auto;html=1;entryX=0.983;entryY=0.596;entryDx=0;entryDy=0;entryPerimeter=0;exitX=0.5;exitY=1;exitDx=0;exitDy=0;" edge="1" parent="1">
          <mxGeometry relative="1" as="geometry">
            <mxPoint x="1102.04" y="240" as="sourcePoint" />
            <mxPoint x="455" y="555.7600000000002" as="targetPoint" />
            <Array as="points">
              <mxPoint x="1102.04" y="556" />
            </Array>
          </mxGeometry>
        </mxCell>
        <mxCell id="gPP1iTlo6FLZJjChbTKV-107" value="Данные подтверждены" style="rounded=1;whiteSpace=wrap;html=1;" vertex="1" parent="1">
          <mxGeometry x="1040" y="200" width="120" height="60" as="geometry" />
        </mxCell>
        <mxCell id="gPP1iTlo6FLZJjChbTKV-108" value="" style="edgeStyle=orthogonalEdgeStyle;rounded=0;orthogonalLoop=1;jettySize=auto;html=1;" edge="1" parent="1" source="gPP1iTlo6FLZJjChbTKV-109" target="gPP1iTlo6FLZJjChbTKV-114">
          <mxGeometry relative="1" as="geometry" />
        </mxCell>
        <mxCell id="gPP1iTlo6FLZJjChbTKV-109" value="Данные введены в поле входа" style="rounded=1;whiteSpace=wrap;html=1;" vertex="1" parent="1">
          <mxGeometry x="335" y="680" width="120" height="60" as="geometry" />
        </mxCell>
        <mxCell id="gPP1iTlo6FLZJjChbTKV-110" value="" style="edgeStyle=orthogonalEdgeStyle;rounded=0;orthogonalLoop=1;jettySize=auto;html=1;" edge="1" parent="1" source="gPP1iTlo6FLZJjChbTKV-112" target="gPP1iTlo6FLZJjChbTKV-100">
          <mxGeometry relative="1" as="geometry" />
        </mxCell>
        <mxCell id="gPP1iTlo6FLZJjChbTKV-111" value="" style="edgeStyle=orthogonalEdgeStyle;rounded=0;orthogonalLoop=1;jettySize=auto;html=1;" edge="1" parent="1" source="gPP1iTlo6FLZJjChbTKV-112" target="gPP1iTlo6FLZJjChbTKV-116">
          <mxGeometry relative="1" as="geometry" />
        </mxCell>
        <mxCell id="gPP1iTlo6FLZJjChbTKV-112" value="Данные валидны?" style="html=1;whiteSpace=wrap;aspect=fixed;shape=isoRectangle;" vertex="1" parent="1">
          <mxGeometry x="320" y="900" width="150" height="90" as="geometry" />
        </mxCell>
        <mxCell id="gPP1iTlo6FLZJjChbTKV-113" value="" style="edgeStyle=orthogonalEdgeStyle;rounded=0;orthogonalLoop=1;jettySize=auto;html=1;" edge="1" parent="1" source="gPP1iTlo6FLZJjChbTKV-114" target="gPP1iTlo6FLZJjChbTKV-112">
          <mxGeometry relative="1" as="geometry" />
        </mxCell>
        <mxCell id="gPP1iTlo6FLZJjChbTKV-114" value="Данные отправлены" style="rounded=1;whiteSpace=wrap;html=1;" vertex="1" parent="1">
          <mxGeometry x="335" y="785" width="120" height="60" as="geometry" />
        </mxCell>
        <mxCell id="gPP1iTlo6FLZJjChbTKV-115" value="" style="edgeStyle=orthogonalEdgeStyle;rounded=0;orthogonalLoop=1;jettySize=auto;html=1;entryX=0.998;entryY=0.846;entryDx=0;entryDy=0;entryPerimeter=0;exitX=0.5;exitY=0;exitDx=0;exitDy=0;" edge="1" parent="1" source="gPP1iTlo6FLZJjChbTKV-116">
          <mxGeometry relative="1" as="geometry">
            <mxPoint x="580.24" y="900" as="sourcePoint" />
            <mxPoint x="455.0000000000002" y="575.7599999999998" as="targetPoint" />
            <Array as="points">
              <mxPoint x="580" y="915" />
              <mxPoint x="580" y="576" />
            </Array>
          </mxGeometry>
        </mxCell>
        <mxCell id="gPP1iTlo6FLZJjChbTKV-116" value="Пользователя не существует" style="rounded=1;whiteSpace=wrap;html=1;" vertex="1" parent="1">
          <mxGeometry x="522" y="915" width="120" height="60" as="geometry" />
        </mxCell>
        <mxCell id="gPP1iTlo6FLZJjChbTKV-117" value="Вход в систему" style="text;html=1;align=center;verticalAlign=middle;resizable=0;points=[];autosize=1;strokeColor=none;fillColor=none;" vertex="1" parent="1">
          <mxGeometry x="390" y="1030" width="110" height="30" as="geometry" />
        </mxCell>
      </root>
    </mxGraphModel>
  </diagram>
</mxfile>
